Source: The.Killing.1956.720p.BluRay.X264-AMIABLE

Subs: Bosnian, Brazilian, Chinese, Dutch, English, French, Italian, Polish, Romanian, Spanish and Turkish.

Sample and Screens included.

General
Complete name                    : The Killing-720p MP4 AAC x264 BRRip 1956-CC.mp4
Format                           : MPEG-4
Format profile                   : Base Media
Codec ID                         : isom
File size                        : 1.76 GiB
Duration                         : 1h 24mn
Overall bit rate                 : 2 987 Kbps
Encoded date                     : UTC 2012-05-24 10:29:08

Video
ID                               : 1
Format                           : AVC
Format/Info                      : Advanced Video Codec
Format profile                   : High@L3.1
Format settings, CABAC           : Yes
Format settings, ReFrames        : 5 frames
Codec ID                         : avc1
Codec ID/Info                    : Advanced Video Coding
Duration                         : 1h 24mn
Bit rate mode                    : Variable
Bit rate                         : 2 887 Kbps
Maximum bit rate                 : 14.4 Mbps
Width                            : 1 200 pixels
Height                           : 720 pixels
Display aspect ratio             : 1.667
Frame rate mode                  : Variable
Frame rate                       : 23.976 fps
Minimum frame rate               : 19.133 fps
Maximum frame rate               : 25.000 fps
Resolution                       : 24 bits
Colorimetry                      : 4:2:0
Scan type                        : Progressive
Bits/(Pixel*Frame)               : 0.139
Stream size                      : 1.69 GiB (96%)
Writing library                  : x264 core 112

Audio
ID                               : 2
Format                           : AAC
Format/Info                      : Advanced Audio Codec
Format version                   : Version 4
Format profile                   : LC
Format settings, SBR             : No
Format settings, PS              : Yes
Codec ID                         : 40
Duration                         : 1h 24mn
Bit rate mode                    : Variable
Bit rate                         : 105 Kbps
Maximum bit rate                 : 133 Kbps
Channel(s)                       : 2 channels
Channel positions                : Front: L R
Sampling rate                    : 48.0 KHz
Resolution                       : 16 bits
Stream size                      : 63.4 MiB (4%)
Language                         : English

Enjoy...

Requested by DreamExtractor.